<?xml version="1.0" encoding="UTF-8"?>
<svg width="422px" height="80px" viewBox="0 0 422 80" version="1.1" xmlns="http://www.w3.org/2000/svg" xmlns:xlink="http://www.w3.org/1999/xlink">
    <!-- Generator: Sketch 52.5 (67469) - http://www.bohemiancoding.com/sketch -->
    <title>Artboard</title>
    <desc>Created with Sketch.</desc>
    <g id="Artboard" stroke="none" stroke-width="1" fill="none" fill-rule="evenodd">
        <path d="M62.6585395,47.4331551 C62.6585395,51.1230131 62.2293959,54.5822031 61.3710959,57.8108289 C60.5127959,61.0394546 59.1027527,63.8529292 57.140924,66.2513369 C55.1790954,68.6497446 52.6195604,70.5407685 49.4622424,71.9244652 C46.3049245,73.308162 42.4273057,74 37.8292698,74 C33.2312339,74 29.3536151,73.308162 26.1962971,71.9244652 C23.0389791,70.5407685 20.4794442,68.6497446 18.5176155,66.2513369 C16.5557868,63.8529292 15.1457437,61.0394546 14.2874436,57.8108289 C13.4291436,54.5822031 13,51.1230131 13,47.4331551 L13,6.84491979 L15.0231257,6.84491979 L15.0231257,47.0641711 C15.0231257,49.6470717 15.2836771,52.3990496 15.8047879,55.3201872 C16.3258986,58.2413248 17.3987576,60.9471801 19.0233969,63.4378342 C20.6480363,65.9284884 22.9470197,68.0040024 25.9204163,69.6644385 C28.8938129,71.3248746 32.863391,72.1550802 37.8292698,72.1550802 C42.6725342,72.1550802 46.5808061,71.355623 49.5542027,69.7566845 C52.5275993,68.157746 54.8419093,66.1129804 56.4972022,63.6223262 C58.1524951,61.131672 59.2560072,58.4258167 59.8077715,55.5046791 C60.3595358,52.5835415 60.6354138,49.770067 60.6354138,47.0641711 L60.6354138,6.84491979 L62.6585395,6.84491979 L62.6585395,47.4331551 Z M129.549632,72.1550802 L82.8338206,9.42780749 L82.5579398,9.42780749 L82.5579398,72.1550802 L80.5348141,72.1550802 L80.5348141,6.84491979 L83.3855821,6.84491979 L130.193354,69.4799465 L130.469234,69.4799465 L130.469234,6.84491979 L132.49236,6.84491979 L132.49236,72.1550802 L129.549632,72.1550802 Z M205.72871,39.5 C205.72871,45.1577823 204.809117,50.0313967 202.969902,54.1209893 C201.130688,58.2105819 198.58648,61.5929011 195.337201,64.2680481 C192.087922,66.9431952 188.27161,68.9264641 183.888149,70.2179144 C179.504688,71.5093647 174.799435,72.1550802 169.772249,72.1550802 L151.288237,72.1550802 L151.288237,6.84491979 L169.772249,6.84491979 C174.799435,6.84491979 179.504688,7.47526108 183.888149,8.73596257 C188.27161,9.99666406 192.087922,11.9645588 195.337201,14.6397059 C198.58648,17.3148529 201.130688,20.7125462 202.969902,24.8328877 C204.809117,28.9532292 205.72871,33.8422177 205.72871,39.5 Z M153.403323,8.68983957 L153.403323,70.3101604 L169.312448,70.3101604 C174.094405,70.3101604 178.585086,69.7105675 182.784626,68.5113636 C186.984165,67.3121598 190.616559,65.4672584 193.681916,62.9766043 C196.747274,60.4859501 199.16887,57.3034953 200.946777,53.4291444 C202.724684,49.5547935 203.613624,44.9117918 203.613624,39.5 C203.613624,34.0882082 202.724684,29.4298324 200.946777,25.5247326 C199.16887,21.6196329 196.747274,18.4218039 193.681916,15.9311497 C190.616559,13.4404956 186.984165,11.6109684 182.784626,10.4425134 C178.585086,9.27405833 174.094405,8.68983957 169.312448,8.68983957 L153.403323,8.68983957 Z M285.218358,39.5 C285.218358,44.542806 284.375397,49.1704335 282.689451,53.3830214 C281.003504,57.5956093 278.673868,61.2239153 275.700471,64.2680481 C272.727075,67.312181 269.18664,69.6951786 265.079061,71.4171123 C260.971483,73.139046 256.526781,74 251.744824,74 C246.962867,74 242.518165,73.139046 238.410586,71.4171123 C234.303008,69.6951786 230.762573,67.312181 227.789177,64.2680481 C224.81578,61.2239153 222.486143,57.5956093 220.800197,53.3830214 C219.11425,49.1704335 218.27129,44.542806 218.27129,39.5 C218.27129,34.457194 219.11425,29.8295665 220.800197,25.6169786 C222.486143,21.4043907 224.81578,17.7760847 227.789177,14.7319519 C230.762573,11.687819 234.287681,9.30482144 238.364606,7.5828877 C242.441531,5.86095396 246.901559,5 251.744824,5 C256.588088,5 261.048116,5.86095396 265.125041,7.5828877 C269.201967,9.30482144 272.727075,11.687819 275.700471,14.7319519 C278.673868,17.7760847 281.003504,21.4043907 282.689451,25.6169786 C284.375397,29.8295665 285.218358,34.457194 285.218358,39.5 Z M283.195232,39.5 C283.195232,34.9491751 282.428904,30.6905279 280.896226,26.7239305 C279.363547,22.7573331 277.202503,19.2981431 274.413028,16.3462567 C271.623552,13.3943703 268.29769,11.0728694 264.435339,9.38168449 C260.572989,7.69049957 256.34286,6.84491979 251.744824,6.84491979 C247.146788,6.84491979 242.916658,7.69049957 239.054308,9.38168449 C235.191958,11.0728694 231.866095,13.3943703 229.07662,16.3462567 C226.287145,19.2981431 224.126101,22.7573331 222.593422,26.7239305 C221.060743,30.6905279 220.294415,34.9491751 220.294415,39.5 C220.294415,44.0508249 221.045417,48.3094721 222.547442,52.2760695 C224.049467,56.2426669 226.179858,59.7018569 228.93868,62.6537433 C231.697501,65.6056297 235.008038,67.9271306 238.870388,69.6183155 C242.732738,71.3095004 247.024174,72.1550802 251.744824,72.1550802 C256.465474,72.1550802 260.75691,71.3095004 264.61926,69.6183155 C268.48161,67.9271306 271.792146,65.6056297 274.550968,62.6537433 C277.309789,59.7018569 279.440181,56.2426669 280.942206,52.2760695 C282.444231,48.3094721 283.195232,44.0508249 283.195232,39.5 Z M349.902404,72.1550802 L303.186593,9.42780749 L302.910712,9.42780749 L302.910712,72.1550802 L300.887586,72.1550802 L300.887586,6.84491979 L303.738354,6.84491979 L350.546126,69.4799465 L350.822007,69.4799465 L350.822007,6.84491979 L352.845132,6.84491979 L352.845132,72.1550802 L349.902404,72.1550802 Z M371.641009,72.1550802 L371.641009,6.84491979 L409.528636,6.84491979 L409.528636,8.68983957 L373.572175,8.68983957 L373.572175,37.3783422 L407.41355,37.3783422 L407.41355,39.223262 L373.572175,39.223262 L373.572175,70.3101604 L411,70.3101604 L411,72.1550802 L371.641009,72.1550802 Z" id="UNDONE" fill="#FFFFFF"></path>
    </g>
</svg>